<svg width="205" height="97" viewBox="0 0 205 97" fill="none" xmlns="http://www.w3.org/2000/svg">
<path d="M116.63 34.8245C115.347 32.5173 114.649 31.5233 112.679 30.4255C113.451 29.8853 114.581 28.5105 116.512 25.4741L117.516 22.9857C119.211 17.7275 117.171 10.8222 116.321 8.92463C115.888 7.95784 115.238 6.85007 114.607 6.07718C111.757 2.5846 107.31 0.724474 102.972 0.5H75.2593C74.6137 0.546537 74.1798 1.12917 73.9118 1.68853C69.2896 12.4035 64.6701 23.1331 60.0532 33.8769C59.97 34 59.8539 33.9841 59.7694 33.8682L58.5248 31.1147L45.4166 1.43485C45.2049 1.01009 44.8986 0.548362 44.4035 0.5H34.999C34.3829 0.592162 34.0348 1.22635 34 1.83088V59.9852C34.0268 60.6304 34.4053 61.3489 35.0624 61.4539H44.8916C45.6353 61.2586 45.9376 60.4734 46.0221 59.7475L46.0212 32.202L55.3223 52.8427C55.6854 53.4613 55.9992 53.7255 56.7077 53.8208L63.1311 53.83C63.8326 53.7059 64.175 53.3751 64.5297 52.7619C70.4884 39.0639 76.4427 25.3199 82.3935 11.5294C82.5405 11.2031 82.6963 10.9581 83.0637 10.9207L99.7762 10.913C102.159 10.8933 104.638 11.397 105.914 13.7029C107.075 15.8021 107.157 19.292 106.105 21.4509C105.163 23.3822 103.374 24.1378 101.348 24.2076L92.5431 24.2277C91.7425 24.365 91.1326 24.8878 91.0274 25.7447L91.0208 34.5142C91.1322 35.5257 91.7465 36.0824 92.7085 36.185L101.107 36.1996C103.175 36.1868 105.221 36.8977 106.223 38.8878C107.288 41.0021 107.376 44.6708 106.339 46.8097C105.229 49.0982 103.267 49.7443 100.939 49.966L86.7958 50.2656C85.9578 50.1415 86.1972 52.2512 86.3169 54.361C85.838 57.8359 86.1972 55.7261 86.3169 59.3251C86.456 59.9539 85.3038 61.3362 85.9578 61.4543H103.394C106.404 61.244 109.443 60.2006 111.967 58.4801C116.093 55.6682 118.884 50.6376 118.997 45.5272V42.2225C119.08 40.8912 117.298 36.0244 116.63 34.8245Z" fill="black"/>
<path d="M74.5579 46.7472L74.5751 42.5027C74.576 42.3002 74.5852 42.1199 74.6684 41.9343L77.5571 35.4893L78.8905 32.5004L80.2147 29.5581L81.9755 25.648L84.1851 20.7821L86.2192 16.2452C86.2944 16.0778 86.5132 15.9988 86.65 16.0809C86.7385 16.1339 86.8569 16.237 86.8855 16.3606L86.8797 57.7214C86.8797 58.7958 87.0128 61.1773 86.067 61.4561L86.155 61.4548C86.155 61.4548 75.8794 61.6027 75.46 61.3636C74.7514 60.9593 74.4921 59.9976 74.4917 59.1736L74.5597 50.5181L74.55 48.6949L74.5584 46.7477L74.5579 46.7472Z" fill="#DD2A27"/>
<path d="M124 61.5C123.448 61.5 123 61.0523 123 60.5V1.5C123 0.947714 123.448 0.5 124 0.5H134.4C134.952 0.5 135.4 0.947715 135.4 1.5V26.8651H158.6V1.5C158.6 0.947716 159.048 0.5 159.6 0.5H170C170.552 0.5 171 0.947715 171 1.5V60.5C171 61.0523 170.552 61.5 170 61.5H159.6C159.048 61.5 158.6 61.0523 158.6 60.5V37.9188H135.4V60.5C135.4 61.0523 134.952 61.5 134.4 61.5H124Z" fill="black" stroke="black" stroke-linejoin="round"/>
<path d="M3.5 67.5204C8.1226 67.4879 120.496 67.5009 126.723 67.5139C126.905 67.5465 126.164 68.0937 125.995 68.2696C123.61 70.3151 116.58 76.2758 113.41 78.9922C112.118 80.0411 112.912 79.774 113.584 79.8131C128.64 79.7675 180.98 79.8977 189.219 79.774C189.588 79.774 189.874 79.3375 189.839 78.8424C189.792 78.4972 189.787 78.0802 189.731 77.6894C189.506 75.5201 189.029 71.1815 188.842 69.2728C188.846 68.8754 188.673 68.2631 188.911 68.0155C188.981 67.9895 189.085 68.0416 189.228 68.1589C189.336 68.2501 189.471 68.3803 189.627 68.5367C191.795 70.8102 198.933 78.3343 200.919 80.4384C201.079 80.6143 201.205 80.7576 201.301 80.8814C201.426 81.0443 201.491 81.1746 201.5 81.2788C198.066 84.0735 180.729 94.1056 177.515 96.3009C177.22 96.4833 177.077 96.542 177.108 96.4703C179.987 92.8939 185.551 86.588 187.983 83.6565C188.4 83.1614 188.525 82.979 188.473 82.9269C183.751 82.9856 123.358 85.233 106.351 85.8063C104.213 85.8779 102.778 85.9366 102.262 85.9496C101.711 86.0473 102.812 85.1027 102.89 84.9659C105.028 82.6208 110.371 77.2203 113.441 73.8329C113.918 73.3052 113.614 72.2694 112.998 72.3215C102.522 73.1814 61.005 78.2561 54.9947 78.0672C54.9687 78.0672 54.9427 78.0672 54.9167 78.0607C41.643 75.3442 7.44179 68.3478 3.5 67.5204Z" fill="#DD2A27"/>
</svg>
